<svg id="Layer_1" data-name="Layer 1" xmlns="http://www.w3.org/2000/svg" xmlns:xlink="http://www.w3.org/1999/xlink" viewBox="0 0 7643.83 4323.02"><defs><style>.cls-1{fill:none;}.cls-2{clip-path:url(#clip-path);}.cls-3{fill:url(#linear-gradient);}.cls-4{fill:url(#linear-gradient-2);}.cls-5{fill:url(#linear-gradient-3);}</style><clipPath id="clip-path" transform="translate(-3386.62 -5030.77)"><rect class="cls-1" x="5279.5" y="6107.32" width="3840" height="2172.18"/></clipPath><linearGradient id="linear-gradient" x1="3723.6" y1="3959.28" x2="3854.46" y2="1566.51" gradientUnits="userSpaceOnUse"><stop offset="0" stop-color="#795fee"/><stop offset="0.08" stop-color="#7a68ef"/><stop offset="0.49" stop-color="#8095f2"/><stop offset="0.81" stop-color="#84b1f3"/><stop offset="1" stop-color="#85bbf4"/></linearGradient><linearGradient id="linear-gradient-2" x1="4690.9" y1="6036.22" x2="4690.9" y2="7495.08" xlink:href="#linear-gradient"/><linearGradient id="linear-gradient-3" x1="9725.02" y1="6036.22" x2="9725.02" y2="7495.08" xlink:href="#linear-gradient"/></defs><title>BACK</title><g class="cls-2"><polygon class="cls-3" points="3270.1 4323.02 0 1852.41 4373.73 0 7643.84 2470.61 3270.1 4323.02"/><path class="cls-4" d="M5623.27,6825c-324.94-224.65-318.49-533.25-222.89-794.69L3386.62,6883.18l1916.84,1448.2C6160.64,7991.59,6165.29,7199.7,5623.27,6825Z" transform="translate(-3386.62 -5030.77)"/><path class="cls-5" d="M8791.49,7557.84c326.28,225.57,318.44,535.8,221.71,797.92l2017.25-854.37L9111.31,6051.44C8254.12,6391.22,8249.47,7183.11,8791.49,7557.84Z" transform="translate(-3386.62 -5030.77)"/></g></svg>