<svg xmlns="http://www.w3.org/2000/svg" xmlns:xlink="http://www.w3.org/1999/xlink" viewBox="0 0 2220.51 561.76"><defs><style>.cls-1{fill:#fafafa;}.cls-2{isolation:isolate;}.cls-3{clip-path:url(#clip-path);}.cls-4{fill:#bdbdbd;}.cls-5{fill:#32b257;}.cls-6{fill:#2058bc;}.cls-7{fill:#8c1057;}.cls-8{fill:#1caf77;}.cls-9{fill:#5cc7ff;}.cls-10,.cls-11,.cls-9{mix-blend-mode:multiply;}.cls-10{fill:#ff5284;}.cls-11{fill:#ffb700;}</style><clipPath id="clip-path" transform="translate(901.46 60.27)"><rect class="cls-1" width="819.67" height="288"/></clipPath></defs><title>Features</title><g class="cls-2"><g id="Layer_1" data-name="Layer 1"><rect class="cls-1" x="901.46" y="60.27" width="819.67" height="288"/><g class="cls-3"><g id="triangle36"><path class="cls-4" d="M47.2,242.64a.46.46,0,0,1-.23-.06l-125.39-73a.2.2,0,0,1-.1-.3.41.41,0,0,1,.38-.14L53.22,184c.18,0,.31.14.3.27l-6,58.15a.28.28,0,0,1-.22.21ZM-77,169.8,46.89,241.89l5.9-57.43Z" transform="translate(901.46 60.27)"/></g><g id="triangle36-2" data-name="triangle36"><path class="cls-4" d="M1094,410.8a.36.36,0,0,1-.34-.19l-66.13-175.55c0-.13.05-.26.22-.3a.43.43,0,0,1,.44.13L1137.7,403.76a.18.18,0,0,1,0,.22.37.37,0,0,1-.24.13l-43.38,6.69Zm-64.71-173,65,172.47,42.61-6.57Z" transform="translate(901.46 60.27)"/></g><g id="triangle36-3" data-name="triangle36"><path class="cls-4" d="M1094,410.8a.43.43,0,0,1-.26-.08L910.92,268.51a.2.2,0,0,1-.08-.22.3.3,0,0,1,.21-.18l116.68-33.35a.49.49,0,0,1,.29,0,.29.29,0,0,1,.18.16l66.13,175.55c0,.11,0,.23-.17.28A.47.47,0,0,1,1094,410.8ZM911.79,268.44l181.49,141.18-65.65-174.28Z" transform="translate(901.46 60.27)"/></g><g id="triangle36-4" data-name="triangle36"><path class="cls-4" d="M53.17,184.5h-.06L-78.25,169.65a.33.33,0,0,1-.29-.19.22.22,0,0,1,.13-.26L94.47,75.94a.48.48,0,0,1,.41,0,.22.22,0,0,1,.15.27L53.51,184.31A.36.36,0,0,1,53.17,184.5ZM-77.32,169.25,52.91,184,94.07,76.78Z" transform="translate(901.46 60.27)"/></g><g id="triangle36-5" data-name="triangle36"><path class="cls-4" d="M53.17,184.5a.44.44,0,0,1-.25-.08.2.2,0,0,1-.09-.24L94.34,76.07a.38.38,0,0,1,.35-.19.35.35,0,0,1,.34.19l34.16,95.11a.18.18,0,0,1,0,.19.37.37,0,0,1-.22.11l-75.68,13ZM94.67,77.12l-41,106.78,74.75-12.84Z" transform="translate(901.46 60.27)"/></g><g id="triangle36-6" data-name="triangle36"><path class="cls-5" d="M128.85,171.5l-.12,0a.31.31,0,0,1-.22-.17L94.34,76.19a.21.21,0,0,1,.12-.26.48.48,0,0,1,.38,0l131.71,45.28a.27.27,0,0,1,.2.2.23.23,0,0,1-.14.22l-97.55,49.83A.47.47,0,0,1,128.85,171.5ZM95.22,76.6l33.85,94.23,96.64-49.37Z" transform="translate(901.46 60.27)"/></g><g id="triangle36-7" data-name="triangle36"><path class="cls-4" d="M-201.58,183.66a.45.45,0,0,1-.24-.06.22.22,0,0,1-.12-.2L-184.29-7.35a.3.3,0,0,1,.3-.23.4.4,0,0,1,.39.15L-77.86,169.31a.18.18,0,0,1,0,.22.38.38,0,0,1-.25.13l-123.38,14Zm17.9-189.92-17.52,189.37,122.5-13.9Z" transform="translate(901.46 60.27)"/></g><g id="triangle36-8" data-name="triangle36"><path class="cls-4" d="M-78.19,169.66h-.09a.34.34,0,0,1-.24-.15L-184.26-7.24a.2.2,0,0,1,.08-.27.47.47,0,0,1,.39-.05L94.82,75.9a.28.28,0,0,1,.21.2.22.22,0,0,1-.14.23L-78,169.61A.46.46,0,0,1-78.19,169.66ZM-183.26-6.86-78,169,94,76.2Z" transform="translate(901.46 60.27)"/></g><g id="triangle36-9" data-name="triangle36"><path class="cls-4" d="M1137.37,404.11h0a.38.38,0,0,1-.3-.15L1027.54,235.1a.19.19,0,0,1,0-.25.36.36,0,0,1,.32-.11l253.73,10.82a.38.38,0,0,1,.3.14.19.19,0,0,1,0,.25L1137.67,404A.41.41,0,0,1,1137.37,404.11ZM1028.44,235.27l109,168.07L1281,246Z" transform="translate(901.46 60.27)"/></g><g id="triangle36-10" data-name="triangle36"><path class="cls-4" d="M682.68,305.45a.45.45,0,0,1-.26-.08.2.2,0,0,1-.07-.28l55.25-84.88a.38.38,0,0,1,.32-.15.41.41,0,0,1,.32.14l41,58a.18.18,0,0,1,0,.2.32.32,0,0,1-.2.14l-96.28,26.85Zm55.26-84.54-54.57,83.83,95.09-26.52Z" transform="translate(901.46 60.27)"/></g><g id="triangle36-11" data-name="triangle36"><path class="cls-4" d="M214.5,183.26h-.07l-85.65-11.76a.33.33,0,0,1-.28-.19.22.22,0,0,1,.14-.26l97.55-49.83a.49.49,0,0,1,.39,0,.24.24,0,0,1,.17.25L214.86,183a.26.26,0,0,1-.15.17A.46.46,0,0,1,214.5,183.26Zm-84.78-12.15,84.48,11.6L225.93,122Z" transform="translate(901.46 60.27)"/></g><g id="triangle36-12" data-name="triangle36"><path class="cls-4" d="M406.51,230a.47.47,0,0,1-.19,0,.24.24,0,0,1-.17-.24l3.74-24.47a.28.28,0,0,1,.22-.2l156.44-46.6a.44.44,0,0,1,.45.11c.09.12,0,.26-.13.33L406.7,230A.47.47,0,0,1,406.51,230Zm4.07-24.55-3.64,23.81L562.8,160.13Z" transform="translate(901.46 60.27)"/></g><g id="triangle36-13" data-name="triangle36"><path class="cls-4" d="M146.41,246.18h0l-99.21-3.54a.43.43,0,0,1-.25-.08.21.21,0,0,1-.09-.18l6-58.15A.28.28,0,0,1,53,184a.47.47,0,0,1,.37.05l93.24,61.68a.2.2,0,0,1,.08.28A.38.38,0,0,1,146.41,246.18Zm-98.83-4,97.88,3.49-92-60.86Z" transform="translate(901.46 60.27)"/></g><g id="triangle36-14" data-name="triangle36"><path class="cls-4" d="M146.41,246.18a.44.44,0,0,1-.24-.07L52.92,184.43a.21.21,0,0,1-.1-.25.32.32,0,0,1,.26-.18l75.68-13a.48.48,0,0,1,.28,0,.26.26,0,0,1,.16.17l17.56,74.68a.24.24,0,0,1-.18.26A.48.48,0,0,1,146.41,246.18Zm-92.52-61.8,92,60.86-17.33-73.69Z" transform="translate(901.46 60.27)"/></g><g id="triangle36-15" data-name="triangle36"><path class="cls-4" d="M146.41,246.18h-.09a.31.31,0,0,1-.27-.2L128.5,171.29a.21.21,0,0,1,.1-.22.46.46,0,0,1,.32-.07l85.65,11.76a.35.35,0,0,1,.26.16.19.19,0,0,1,0,.24l-68.1,62.92A.42.42,0,0,1,146.41,246.18Zm-17.12-74.62,17.34,73.75,67.25-62.14Z" transform="translate(901.46 60.27)"/></g><g id="triangle36-16" data-name="triangle36"><path class="cls-4" d="M449.7,389.89a.47.47,0,0,1-.21,0,.25.25,0,0,1-.15-.18L435.91,272.6a.25.25,0,0,1,.2-.24.48.48,0,0,1,.4,0l145.86,93.34a.21.21,0,0,1,.11.25.32.32,0,0,1-.26.18L449.79,389.88Zm-13-116.7L450,389.32,581.4,365.79Z" transform="translate(901.46 60.27)"/></g><g id="triangle36-17" data-name="triangle36"><path class="cls-4" d="M582.13,366.17a.45.45,0,0,1-.24-.06L436,272.77a.2.2,0,0,1-.06-.32.44.44,0,0,1,.44-.1l219.29,64.94a.27.27,0,0,1,.22.22.25.25,0,0,1-.18.23L582.3,366.14A.48.48,0,0,1,582.13,366.17ZM438,273.38l144.14,92.23,72.56-28.06Z" transform="translate(901.46 60.27)"/></g><g id="triangle36-18" data-name="triangle36"><path class="cls-4" d="M655.55,337.77l-.14,0L436.13,272.81c-.17,0-.26-.18-.2-.3a.38.38,0,0,1,.41-.17L682.75,305a.36.36,0,0,1,.26.14.18.18,0,0,1,0,.23l-27.13,32.32A.4.4,0,0,1,655.55,337.77ZM439.47,273.26,655.4,337.21l26.72-31.83Z" transform="translate(901.46 60.27)"/></g><g id="triangle36-19" data-name="triangle36"><path class="cls-4" d="M436.26,272.83h0a.38.38,0,0,1-.28-.14l-29.75-42.82c-.08-.11,0-.25.13-.32L566.5,158.49a.47.47,0,0,1,.46,0,.2.2,0,0,1,0,.32L436.54,272.74A.42.42,0,0,1,436.26,272.83Zm-29.29-43,29.36,42.26L565.07,159.71Z" transform="translate(901.46 60.27)"/></g><g id="triangle36-20" data-name="triangle36"><path class="cls-4" d="M655.55,337.77a.41.41,0,0,1-.29-.11.19.19,0,0,1,0-.27l27.13-32.32a.43.43,0,0,1,.43-.11l73,18.81c.15,0,.24.14.23.25a.3.3,0,0,1-.29.23L655.62,337.77Zm27.29-32.27-26.58,31.67,98.14-13.24Z" transform="translate(901.46 60.27)"/></g><g id="triangle36-21" data-name="triangle36"><path class="cls-4" d="M1094,410.8l-.12,0L755.6,324.24a.28.28,0,0,1-.23-.22.25.25,0,0,1,.19-.24L911,268.12a.47.47,0,0,1,.43.06l182.81,142.21a.2.2,0,0,1,0,.31A.41.41,0,0,1,1094,410.8ZM756.62,324l336.15,86L911.1,268.65Z" transform="translate(901.46 60.27)"/></g><g id="triangle36-22" data-name="triangle36"><path class="cls-4" d="M755.73,324.26l-.12,0-73-18.81c-.14,0-.23-.13-.23-.23a.27.27,0,0,1,.23-.24l96.28-26.85a.48.48,0,0,1,.38.05.2.2,0,0,1,.09.26l-23.23,45.66a.31.31,0,0,1-.18.14Zm-72-19.07,71.83,18.5,22.85-44.91Z" transform="translate(901.46 60.27)"/></g><g id="triangle36-23" data-name="triangle36"><path class="cls-4" d="M755.73,324.26a.45.45,0,0,1-.23-.06.21.21,0,0,1-.1-.27l23.23-45.66a.36.36,0,0,1,.3-.16l132.23-10a.38.38,0,0,1,.38.18c0,.12,0,.24-.18.29L755.89,324.23Zm23.49-45.68L756.36,323.5,909.3,268.73Z" transform="translate(901.46 60.27)"/></g><g id="triangle36-24" data-name="triangle36"><path class="cls-4" d="M449.7,389.89h0l-88.36-6.8A.39.39,0,0,1,361,383a.19.19,0,0,1,0-.23l74.92-110.26a.41.41,0,0,1,.38-.14.3.3,0,0,1,.29.23l13.44,117.06a.22.22,0,0,1-.11.2A.44.44,0,0,1,449.7,389.89Zm-87.82-7.26,87.43,6.73L436,273.53Z" transform="translate(901.46 60.27)"/></g><g id="triangle36-25" data-name="triangle36"><path class="cls-4" d="M961.21,501.49a.48.48,0,0,1-.17,0l-221.47-86c-.14-.05-.21-.17-.17-.28a.35.35,0,0,1,.34-.19L1094,410.3a.36.36,0,0,1,.33.15.2.2,0,0,1-.08.28l-132.79,90.7A.44.44,0,0,1,961.21,501.49Zm-220.14-86,220.08,85.43,132-90.12Z" transform="translate(901.46 60.27)"/></g><g id="triangle36-26" data-name="triangle36"><path class="cls-4" d="M739.73,415.52l-.14,0L582,366.15a.27.27,0,0,1-.21-.22.25.25,0,0,1,.18-.23l73.42-28.39a.46.46,0,0,1,.45.07L740,415.12a.19.19,0,0,1,0,.31A.43.43,0,0,1,739.73,415.52ZM582.93,365.89l155.68,48.75-83.16-76.8Z" transform="translate(901.46 60.27)"/></g><g id="triangle36-27" data-name="triangle36"><path class="cls-4" d="M739.73,415.52a.42.42,0,0,1-.28-.1l-84.18-77.75a.19.19,0,0,1,0-.24.35.35,0,0,1,.27-.16l100.18-13.51a.46.46,0,0,1,.31.06.21.21,0,0,1,.11.21l-16,91.26a.3.3,0,0,1-.26.21Zm-83.55-77.83,83.31,76.94,15.83-90.31Z" transform="translate(901.46 60.27)"/></g><g id="triangle36-28" data-name="triangle36"><path class="cls-4" d="M739.73,415.52a.43.43,0,0,1-.26-.08.21.21,0,0,1-.09-.2l16-91.26a.26.26,0,0,1,.17-.18.49.49,0,0,1,.31,0l338.27,86.54c.16,0,.26.16.23.28a.34.34,0,0,1-.34.21l-354.26,4.73ZM756,324.35,740.14,415l351.94-4.7Z" transform="translate(901.46 60.27)"/></g><g id="triangle36-29" data-name="triangle36"><path class="cls-4" d="M361.34,383.09h0a.38.38,0,0,1-.32-.15L293.48,267.74a.19.19,0,0,1,0-.24.35.35,0,0,1,.31-.11l142.45,4.93a.4.4,0,0,1,.29.12.19.19,0,0,1,0,.24L361.66,382.95A.39.39,0,0,1,361.34,383.09Zm-67-115.18,67,114.31,74.35-109.41Z" transform="translate(901.46 60.27)"/></g><g id="triangle36-30" data-name="triangle36"><path class="cls-4" d="M293.81,267.9h-.07l-147.4-21.72a.35.35,0,0,1-.26-.16.19.19,0,0,1,.05-.24l68.1-62.92a.51.51,0,0,1,.3-.1.41.41,0,0,1,.28.11l79.31,84.64a.19.19,0,0,1,0,.28A.42.42,0,0,1,293.81,267.9ZM147,245.77l146,21.51-78.56-83.84Z" transform="translate(901.46 60.27)"/></g><g id="triangle36-31" data-name="triangle36"><path class="cls-4" d="M436.26,272.83h0L293.79,267.9a.34.34,0,0,1-.33-.2c0-.11,0-.23.2-.27l112.7-37.88a.44.44,0,0,1,.47.12l29.75,42.82a.19.19,0,0,1,0,.25A.41.41,0,0,1,436.26,272.83Zm-141-5.39,140.45,4.87L406.35,230.1Z" transform="translate(901.46 60.27)"/></g><g id="triangle36-32" data-name="triangle36"><path class="cls-4" d="M293.81,267.9h-.06a.39.39,0,0,1-.24-.11l-79.31-84.64a.19.19,0,0,1,0-.27.42.42,0,0,1,.36-.11L410.31,205a.33.33,0,0,1,.29.19.21.21,0,0,1-.13.26L294,267.84A.46.46,0,0,1,293.81,267.9Zm-78.57-84.55,78.65,83.94,115.48-61.84Z" transform="translate(901.46 60.27)"/></g><g id="triangle36-33" data-name="triangle36"><path class="cls-4" d="M293.81,267.9a.4.4,0,0,1-.3-.12.2.2,0,0,1,.09-.33L410,205.1a.48.48,0,0,1,.39,0,.24.24,0,0,1,.18.24l-3.74,24.47a.27.27,0,0,1-.2.2L294,267.87Zm116-62.05-113,60.53L406.18,229.6Zm-3.3,23.92h0Z" transform="translate(901.46 60.27)"/></g><g id="triangle36-34" data-name="triangle36"><path class="cls-4" d="M682.68,305.45h-.07L436.2,272.83a.31.31,0,0,1-.29-.22c0-.11.08-.22.23-.26l231.95-61.76a.49.49,0,0,1,.31,0,.26.26,0,0,1,.17.19L683,305.17a.22.22,0,0,1-.11.21A.45.45,0,0,1,682.68,305.45ZM437.57,272.5l244.71,32.39-14.37-93.72Z" transform="translate(901.46 60.27)"/></g><g id="triangle36-35" data-name="triangle36"><path class="cls-4" d="M436.26,272.83a.42.42,0,0,1-.29-.1.19.19,0,0,1,0-.3L566.41,158.54a.46.46,0,0,1,.49,0l101.52,52.13a.23.23,0,0,1,.14.24.29.29,0,0,1-.23.2L436.39,272.81ZM566.75,159,437.36,272l230.11-61.27Z" transform="translate(901.46 60.27)"/></g><g id="triangle36-36" data-name="triangle36"><path class="cls-4" d="M682.68,305.45h-.06a.31.31,0,0,1-.3-.22l-14.47-94.37a.22.22,0,0,1,.11-.21.46.46,0,0,1,.31-.06l69.72,9.5a.37.37,0,0,1,.25.13.19.19,0,0,1,0,.22L683,305.3A.39.39,0,0,1,682.68,305.45Zm-14.07-94.31,14.28,93.13,54.52-83.76Z" transform="translate(901.46 60.27)"/></g><g id="triangle36-37" data-name="triangle36"><path class="cls-4" d="M410.25,205.54a.48.48,0,0,1-.19,0,.25.25,0,0,1-.17-.2l-4-66.31a.23.23,0,0,1,.12-.2.48.48,0,0,1,.3-.06l160.42,19.71a.31.31,0,0,1,.29.22c0,.11-.07.22-.21.26l-156.44,46.6Zm-3.6-66.26,3.94,65.64L565.44,158.8Z" transform="translate(901.46 60.27)"/></g><g id="triangle36-38" data-name="triangle36"><path class="cls-4" d="M410.25,205.54h-.06L214.45,183.26a.31.31,0,0,1-.3-.23c0-.11.08-.22.24-.26l128.22-31.14a.47.47,0,0,1,.38.07l67.53,53.42a.19.19,0,0,1,0,.29A.4.4,0,0,1,410.25,205.54ZM216,182.92l193.37,22-66.71-52.77Z" transform="translate(901.46 60.27)"/></g><g id="triangle36-39" data-name="triangle36"><path class="cls-4" d="M214.5,183.26a.46.46,0,0,1-.23-.06.22.22,0,0,1-.13-.23L226,121.38a.27.27,0,0,1,.17-.18.5.5,0,0,1,.31,0l116.33,30.45c.14,0,.23.13.23.24s-.1.2-.24.23L214.62,183.25Zm12.19-61.5-11.76,60.88,126.74-30.78Z" transform="translate(901.46 60.27)"/></g><g id="triangle36-40" data-name="triangle36"><path class="cls-4" d="M410.25,205.54a.43.43,0,0,1-.27-.08L342.46,152a.2.2,0,0,1-.08-.24.33.33,0,0,1,.24-.17l63.55-12.89a.5.5,0,0,1,.31,0,.25.25,0,0,1,.15.19l4,66.31c0,.11-.08.2-.22.24ZM343.36,152l66.49,52.6-3.92-65.29Z" transform="translate(901.46 60.27)"/></g><g id="triangle36-41" data-name="triangle36"><path class="cls-4" d="M-390.9,400.71H-391L-620.11,347c-.15,0-.25-.14-.24-.25a.3.3,0,0,1,.28-.23l193-29a.39.39,0,0,1,.41.17l36.12,82.66a.2.2,0,0,1-.09.25A.44.44,0,0,1-390.9,400.71Zm-227.75-53.87,227.2,53.23-35.82-82Z" transform="translate(901.46 60.27)"/></g><g id="triangle36-42" data-name="triangle36"><path class="cls-4" d="M1185,238.74a.42.42,0,0,1-.29-.1L959.28,20.79a.2.2,0,0,1,.06-.34.47.47,0,0,1,.48,0l280.3,192.25a.22.22,0,0,1,.11.2.25.25,0,0,1-.16.18l-54.88,25.6A.48.48,0,0,1,1185,238.74ZM962.33,22.89l222.75,215.26,54.23-25.29Z" transform="translate(901.46 60.27)"/></g><g id="triangle36-43" data-name="triangle36"><path class="cls-4" d="M1185,238.74l-.16,0L823.51,111a.27.27,0,0,1-.19-.19.21.21,0,0,1,.11-.22l135.9-90.09a.46.46,0,0,1,.28-.07.41.41,0,0,1,.25.1l225.42,217.84a.19.19,0,0,1,0,.31A.43.43,0,0,1,1185,238.74ZM824.28,110.67,1183.84,237.8,959.52,21Z" transform="translate(901.46 60.27)"/></g><g id="triangle36-44" data-name="triangle36"><path class="cls-4" d="M-620,347a.42.42,0,0,1-.29-.11.19.19,0,0,1,0-.27l167.88-194.13a.43.43,0,0,1,.38-.11.3.3,0,0,1,.28.22l25.1,165.15c0,.13-.1.24-.28.27l-193,29Zm167.64-193.62-166.9,193,191.85-28.82Z" transform="translate(901.46 60.27)"/></g><g id="triangle36-45" data-name="triangle36"><path class="cls-4" d="M-427,318.05l-.15,0a.28.28,0,0,1-.21-.2l-25.1-165.15c0-.11.08-.22.23-.26a.45.45,0,0,1,.42.09L-332,271.16a.19.19,0,0,1,.06.19.26.26,0,0,1-.15.16L-426.82,318A.47.47,0,0,1-427,318.05Zm-24.6-164.47,24.89,163.78,93.95-46.11Z" transform="translate(901.46 60.27)"/></g><g id="triangle36-46" data-name="triangle36"><path class="cls-4" d="M-332.29,271.56a.42.42,0,0,1-.29-.11L-452.41,152.8a.19.19,0,0,1,0-.27.45.45,0,0,1,.34-.12l216.7,13a.38.38,0,0,1,.29.14.19.19,0,0,1,0,.25L-332,271.44a.41.41,0,0,1-.29.11ZM-451.39,153-332.3,270.86l96.26-105Z" transform="translate(901.46 60.27)"/></g><g id="triangle36-47" data-name="triangle36"><path class="cls-4" d="M-779.93,412.9l-.13,0a.31.31,0,0,1-.21-.16L-901.44,142.31c-.05-.11,0-.23.16-.29a.47.47,0,0,1,.44,0l281.11,204.55a.21.21,0,0,1,.1.21.27.27,0,0,1-.17.18l-159.94,65.86A.48.48,0,0,1-779.93,412.9ZM-900.31,143.17l120.58,269.11,159.16-65.55Z" transform="translate(901.46 60.27)"/></g><g id="triangle36-48" data-name="triangle36"><path class="cls-4" d="M-620,347a.44.44,0,0,1-.26-.08L-901.36,142.41a.2.2,0,0,1-.07-.28.38.38,0,0,1,.34-.15l449,10.42a.39.39,0,0,1,.3.13.19.19,0,0,1,0,.25L-619.69,346.92a.39.39,0,0,1-.26.12ZM-900.24,142.51l280.18,203.88,167.32-193.49Z" transform="translate(901.46 60.27)"/></g><g id="triangle36-49" data-name="triangle36"><path class="cls-4" d="M1239.88,213.14a.45.45,0,0,1-.25-.07L959.32,20.82a.21.21,0,0,1-.1-.24.31.31,0,0,1,.24-.18l359.12-80.67a.48.48,0,0,1,.35.05.21.21,0,0,1,.11.24l-78.82,272.91a.31.31,0,0,1-.24.19ZM960.24,20.76l279.41,191.64,78.57-272Z" transform="translate(901.46 60.27)"/></g><g id="triangle36-50" data-name="triangle36"><path class="cls-4" d="M535.81,248.07l-.15,0a.25.25,0,0,1-.2-.24l11.62-138.19a.28.28,0,0,1,.22-.22.47.47,0,0,1,.37,0l101,64.77a.23.23,0,0,1,.12.18.22.22,0,0,1-.11.18L536.06,248A.45.45,0,0,1,535.81,248.07Zm11.93-137.9-11.52,137L647.93,174.4Z" transform="translate(901.46 60.27)"/></g><g id="triangle36-51" data-name="triangle36"><path class="cls-4" d="M-332.29,271.56a.41.41,0,0,1-.3-.11.19.19,0,0,1,0-.27l96.87-105.67a.42.42,0,0,1,.36-.11.33.33,0,0,1,.29.19l30.56,89.65a.19.19,0,0,1,0,.19.39.39,0,0,1-.23.11l-127.42,16Zm96.72-105.29-96,104.7,126.25-15.87Z" transform="translate(901.46 60.27)"/></g><g id="triangle36-52" data-name="triangle36"><path class="cls-4" d="M96.34,247.83h-.07a.33.33,0,0,1-.28-.18L82.49,212.4a.2.2,0,0,1,.1-.24L263.36,88.76a.47.47,0,0,1,.48,0,.2.2,0,0,1,.05.34L96.63,247.73A.42.42,0,0,1,96.34,247.83ZM83.23,212.41,96.49,247,260.71,91.26Z" transform="translate(901.46 60.27)"/></g><g id="triangle36-53" data-name="triangle36"><path class="cls-4" d="M-390.9,400.71l-.16,0a.3.3,0,0,1-.18-.15l-36.12-82.66a.2.2,0,0,1,.1-.26.47.47,0,0,1,.37,0l176,50.16c.14,0,.23.13.22.24a.28.28,0,0,1-.24.23l-139.89,32.5Zm-35.56-82.48,35.8,81.91L-252,367.94Z" transform="translate(901.46 60.27)"/></g><g id="triangle36-54" data-name="triangle36"><path class="cls-4" d="M-251,368.21l-.13,0-176-50.16a.28.28,0,0,1-.22-.2.23.23,0,0,1,.15-.23l94.73-46.5a.46.46,0,0,1,.28,0,.37.37,0,0,1,.23.12l81.28,96.66a.19.19,0,0,1,0,.29A.43.43,0,0,1-251,368.21Zm-175.27-50.47,174.43,49.71-80.55-95.79Z" transform="translate(901.46 60.27)"/></g><g id="triangle36-55" data-name="triangle36"><path class="cls-4" d="M-251,368.21a.4.4,0,0,1-.31-.12l-81.28-96.66a.19.19,0,0,1,0-.23.36.36,0,0,1,.26-.14l127.42-16a.45.45,0,0,1,.33.08.2.2,0,0,1,.08.24L-250.67,368a.35.35,0,0,1-.3.18Zm-80.71-96.72,80.6,95.85,45.76-111.73Z" transform="translate(901.46 60.27)"/></g><g id="triangle36-56" data-name="triangle36"><path class="cls-4" d="M278.07,452.64H278a.35.35,0,0,1-.23-.13L169.84,295.69a.19.19,0,0,1,.06-.28.46.46,0,0,1,.39-.06l272.94,74.1a.29.29,0,0,1,.23.2.23.23,0,0,1-.15.23l-165,82.71A.47.47,0,0,1,278.07,452.64ZM170.87,296,278.21,452l164.14-82.27Z" transform="translate(901.46 60.27)"/></g><g id="triangle36-57" data-name="triangle36"><path class="cls-4" d="M443.1,369.93l-.13,0L170,295.81c-.16,0-.26-.16-.22-.28a.36.36,0,0,1,.36-.2L523,302.49a.39.39,0,0,1,.32.15.19.19,0,0,1-.05.26l-79.86,66.94A.43.43,0,0,1,443.1,369.93ZM172.22,295.87,443,369.38,522.22,303Z" transform="translate(901.46 60.27)"/></g><g id="triangle36-58" data-name="triangle36"><path class="cls-4" d="M523,303h0l-352.8-7.16c-.18,0-.33-.1-.34-.23s.11-.24.29-.27l365.66-47.76a.46.46,0,0,1,.31.07.21.21,0,0,1,.1.22l-12.85,54.93A.34.34,0,0,1,523,303ZM173.5,295.4l349.16,7.09,12.72-54.36Z" transform="translate(901.46 60.27)"/></g><g id="triangle36-59" data-name="triangle36"><path class="cls-4" d="M170.16,295.83a.45.45,0,0,1-.24-.07l-73.81-48a.2.2,0,0,1,0-.33L263.32,88.79a.46.46,0,0,1,.45-.07c.15.06.23.18.18.3L170.5,295.66a.33.33,0,0,1-.25.17ZM96.82,247.55,170,295.13,262.62,90.3Z" transform="translate(901.46 60.27)"/></g><g id="triangle36-60" data-name="triangle36"><path class="cls-4" d="M523,303a.47.47,0,0,1-.2,0,.23.23,0,0,1-.15-.25l12.85-54.93a.34.34,0,0,1,.34-.21l115.36-1.52h0a.36.36,0,0,1,.34.18c0,.11,0,.22-.15.28L523.15,303A.48.48,0,0,1,523,303Zm13.16-54.93-12.68,54.17L649.9,246.57Z" transform="translate(901.46 60.27)"/></g><g id="triangle36-61" data-name="triangle36"><path class="cls-4" d="M651.18,246.55a.39.39,0,0,1-.32-.15.2.2,0,0,1,.06-.27L823.4,110.57a.47.47,0,0,1,.43-.06l361.33,127.76c.15.05.22.17.19.28a.35.35,0,0,1-.34.19l-533.82,7.81ZM823.75,111,652,246l531.57-7.78Z" transform="translate(901.46 60.27)"/></g><g id="triangle36-62" data-name="triangle36"><path class="cls-4" d="M535.81,248.07a.38.38,0,0,1-.33-.16.2.2,0,0,1,.09-.28l112.64-73.42a.47.47,0,0,1,.38,0,.27.27,0,0,1,.22.22l2.72,71.9a.22.22,0,0,1-.1.18.44.44,0,0,1-.25.08l-115.36,1.52ZM648.12,175l-111.38,72.6,114.07-1.5Z" transform="translate(901.46 60.27)"/></g><g id="triangle36-63" data-name="triangle36"><path class="cls-6" d="M651.18,246.55l-.12,0a.28.28,0,0,1-.23-.23l-2.72-71.9a.25.25,0,0,1,.19-.23L823.5,110.51a.46.46,0,0,1,.44.07.2.2,0,0,1,0,.32L651.44,246.47A.44.44,0,0,1,651.18,246.55Zm-2.36-72,2.69,71.12L822.11,111.58Z" transform="translate(901.46 60.27)"/></g><g id="triangle36-64" data-name="triangle36"><path class="cls-4" d="M150.7,476.54a.45.45,0,0,1-.23-.06.22.22,0,0,1-.13-.21L169.8,295.56a.3.3,0,0,1,.29-.23.42.42,0,0,1,.39.14L278.39,452.28a.18.18,0,0,1,0,.21.35.35,0,0,1-.23.14l-127.38,23.9Zm19.72-180L151.09,476l126.48-23.73Z" transform="translate(901.46 60.27)"/></g><g id="triangle36-65" data-name="triangle36"><path class="cls-4" d="M1070.59,414.2h0L698.66,378.78a.32.32,0,0,1-.31-.22c0-.11.07-.22.22-.26l486.28-140a.47.47,0,0,1,.39.06.2.2,0,0,1,.07.28L1070.91,414.06A.39.39,0,0,1,1070.59,414.2ZM700.07,378.41l370.3,35.27L1184.29,239Z" transform="translate(901.46 60.27)"/></g><g id="triangle36-66" data-name="triangle36"><path class="cls-4" d="M698.71,378.79h0l-255.62-8.86a.38.38,0,0,1-.31-.15.19.19,0,0,1,.05-.26l79.86-66.94a.46.46,0,0,1,.46-.05L698.9,378.32c.14.06.2.18.15.29A.37.37,0,0,1,698.71,378.79Zm-254.88-9.33,253.51,8.78L523,303.07Z" transform="translate(901.46 60.27)"/></g><g id="triangle36-67" data-name="triangle36"><path class="cls-4" d="M698.71,378.79a.47.47,0,0,1-.19,0L522.77,303a.22.22,0,0,1,0-.42L651,246.09a.48.48,0,0,1,.32,0,.3.3,0,0,1,.21.17l47.54,132.23a.22.22,0,0,1-.13.26A.47.47,0,0,1,698.71,378.79Zm-175.08-76L698.15,378,651,246.7Z" transform="translate(901.46 60.27)"/></g><g id="triangle36-68" data-name="triangle36"><path class="cls-4" d="M698.71,378.79l-.16,0a.29.29,0,0,1-.18-.16L650.83,246.36a.19.19,0,0,1,.06-.21.43.43,0,0,1,.28-.1L1185,238.24h0a.35.35,0,0,1,.35.2c0,.12-.06.24-.21.28l-486.28,140ZM651.63,246.55,699,378.19l484.14-139.43Z" transform="translate(901.46 60.27)"/></g><g id="triangle36-69" data-name="triangle36"><path class="cls-4" d="M150.7,476.54a.44.44,0,0,1-.26-.08L-30.86,342.62a.2.2,0,0,1-.09-.23.31.31,0,0,1,.23-.18L170,295.34a.49.49,0,0,1,.33,0,.23.23,0,0,1,.13.22L151,476.31a.28.28,0,0,1-.23.22ZM-30,342.56,150.4,475.71l19.36-179.77Z" transform="translate(901.46 60.27)"/></g><g id="triangle36-70" data-name="triangle36"><path class="cls-4" d="M-251,368.21a.44.44,0,0,1-.27-.08.2.2,0,0,1-.08-.24l46.15-112.67a.31.31,0,0,1,.22-.17.48.48,0,0,1,.32,0L-30.4,342.24a.22.22,0,0,1,.14.26.33.33,0,0,1-.29.19L-251,368.21Zm46.35-112.51-45.85,112,219-25.36Z" transform="translate(901.46 60.27)"/></g><g id="triangle36-71" data-name="triangle36"><path class="cls-4" d="M-30.6,342.69a.41.41,0,0,1-.3-.12.2.2,0,0,1,0-.31L96.08,247.41a.47.47,0,0,1,.5,0l73.81,48a.21.21,0,0,1,.11.24.3.3,0,0,1-.23.18L-30.49,342.68Zm127-94.76-125.74,94,198.85-46.42Z" transform="translate(901.46 60.27)"/></g><g id="triangle36-72" data-name="triangle36"><path class="cls-4" d="M-30.6,342.69a.47.47,0,0,1-.21,0L-205.07,255.5a.22.22,0,0,1-.14-.25.32.32,0,0,1,.27-.19l287.7-43a.45.45,0,0,1,.36.1.19.19,0,0,1,0,.27L-30.3,342.57a.38.38,0,0,1-.23.11ZM-204,255.42l173.29,86.67L82.1,212.7Z" transform="translate(901.46 60.27)"/></g><g id="triangle36-73" data-name="triangle36"><path class="cls-4" d="M-30.6,342.69a.47.47,0,0,1-.22-.05.21.21,0,0,1-.09-.33L82.53,212.21a.42.42,0,0,1,.35-.12.34.34,0,0,1,.29.18l13.51,35.25a.2.2,0,0,1-.08.24L-30.34,342.61A.44.44,0,0,1-30.6,342.69ZM82.71,213-28.49,340.5l124.44-93Z" transform="translate(901.46 60.27)"/></g><g id="triangle36-74" data-name="triangle36"><path class="cls-4" d="M170.16,295.83a.39.39,0,0,1-.32-.14.2.2,0,0,1,.08-.3L443.54,122.58a.48.48,0,0,1,.3-.06.37.37,0,0,1,.25.13l92,125.05a.18.18,0,0,1,0,.22.37.37,0,0,1-.25.14L170.22,295.83ZM443.67,123.17l-272.33,172,363.94-47.54Z" transform="translate(901.46 60.27)"/></g><g id="triangle36-75" data-name="triangle36"><path class="cls-7" d="M170.16,295.83a.47.47,0,0,1-.19,0c-.13-.06-.19-.18-.15-.29L263.27,88.87a.4.4,0,0,1,.43-.17l180.17,33.82a.32.32,0,0,1,.25.18.21.21,0,0,1-.11.24L170.39,295.77A.45.45,0,0,1,170.16,295.83ZM263.84,89.25l-93,205.53L443,122.89Z" transform="translate(901.46 60.27)"/></g><g id="triangle36-76" data-name="triangle36"><path class="cls-8" d="M535.81,248.07a.39.39,0,0,1-.32-.14l-92-125.05a.18.18,0,0,1,0-.23.37.37,0,0,1,.26-.14l103.66-13.14a.48.48,0,0,1,.3.06.22.22,0,0,1,.12.2L536.17,247.83a.3.3,0,0,1-.28.23ZM444.31,123,535.54,246.9l11.52-137Z" transform="translate(901.46 60.27)"/></g><g id="triangle36-77" data-name="triangle36"><path class="cls-4" d="M82.84,212.59h-.07a.36.36,0,0,1-.26-.15L26.4,122.24a.18.18,0,0,1,0-.22.37.37,0,0,1,.25-.13L263.54,88.7a.42.42,0,0,1,.38.13.2.2,0,0,1-.07.3L83.08,212.52A.44.44,0,0,1,82.84,212.59Zm-55.6-90.26L83,211.91,262.49,89.35Z" transform="translate(901.46 60.27)"/></g><g id="triangle36-78" data-name="triangle36"><path class="cls-4" d="M-204.86,255.54a.39.39,0,0,1-.32-.14.2.2,0,0,1,.09-.3l153.55-91.38a.47.47,0,0,1,.39,0L83,212.11c.13,0,.21.15.19.26a.31.31,0,0,1-.28.21l-287.7,43Zm153.6-91.33-152.29,90.63,285.34-42.6Z" transform="translate(901.46 60.27)"/></g><g id="triangle36-79" data-name="triangle36"><path class="cls-4" d="M-204.86,255.54H-205a.31.31,0,0,1-.24-.18l-30.56-89.65a.19.19,0,0,1,.07-.21.42.42,0,0,1,.28-.1l184.11-1.73a.41.41,0,0,1,.34.16.21.21,0,0,1-.1.28l-153.55,91.38A.46.46,0,0,1-204.86,255.54ZM-235,165.88l30.32,89L-52.3,164.17Z" transform="translate(901.46 60.27)"/></g><g id="triangle36-80" data-name="triangle36"><path class="cls-4" d="M82.84,212.59l-.16,0L-51.48,164.13a.27.27,0,0,1-.19-.2.23.23,0,0,1,.14-.22l78-41.77a.48.48,0,0,1,.31,0,.35.35,0,0,1,.24.14l56.11,90.19a.2.2,0,0,1-.08.28A.44.44,0,0,1,82.84,212.59ZM-50.65,163.87,82.11,211.79,26.58,122.53Z" transform="translate(901.46 60.27)"/></g><ellipse class="cls-9" cx="1719.28" cy="231.92" rx="4.96" ry="3.49"/></g><circle class="cls-10" cx="1384.46" cy="254.37" r="3.16"/><circle class="cls-10" cx="1369.4" cy="233.44" r="3.15"/><circle class="cls-10" cx="1452.42" cy="284.31" r="2.97"/><circle class="cls-10" cx="1381.14" cy="293.31" r="3.06"/><circle class="cls-10" cx="1324.72" cy="268.61" r="1.64"/><circle class="cls-10" cx="1182.42" cy="262.78" r="4.97"/><circle class="cls-10" cx="1266.67" cy="278.74" r="1.77"/><circle class="cls-10" cx="1265.68" cy="300.96" r="3.85"/><circle class="cls-10" cx="1176.29" cy="188.1" r="1.96"/><circle class="cls-10" cx="1165.92" cy="291.94" r="3.92"/><circle class="cls-10" cx="1087.36" cy="237.48" r="2.77"/><circle class="cls-10" cx="1093.54" cy="329.38" r="2.81"/><circle class="cls-10" cx="959.23" cy="275.26" r="4.82"/><circle class="cls-10" cx="914.4" cy="219.49" r="4.07"/><circle class="cls-10" cx="935.82" cy="196.02" r="3.87"/><circle class="cls-9" cx="1449.88" cy="299.12" r="1.44"/><circle class="cls-9" cx="1400.04" cy="327.11" r="2.89"/><circle class="cls-9" cx="1324.62" cy="193.53" r="4.24"/><circle class="cls-9" cx="1321.06" cy="226.37" r="2.29"/><path class="cls-9" d="M316.9,141.45c3.73,4.9-1.81,10.43-6.7,6.7h0C306.47,143.26,312,137.72,316.9,141.45Z" transform="translate(901.46 60.27)"/><path class="cls-9" d="M267.77,250.32c2.87,3.77-1.39,8-5.15,5.15C259.75,251.71,264,247.45,267.77,250.32Z" transform="translate(901.46 60.27)"/><path class="cls-9" d="M199.94,193.7c3.13,4.12-1.52,8.77-5.63,5.63C191.17,195.22,195.82,190.56,199.94,193.7Z" transform="translate(901.46 60.27)"/><path class="cls-9" d="M230.73,135.06c3,3.9-1.44,8.3-5.33,5.33C222.44,136.5,226.84,132.1,230.73,135.06Z" transform="translate(901.46 60.27)"/><path class="cls-9" d="M127.73,194.18c3.31,4.35-1.61,9.26-5.95,5.95C118.47,195.79,123.38,190.87,127.73,194.18Z" transform="translate(901.46 60.27)"/><path class="cls-9" d="M150.2,220.52a2.92,2.92,0,0,1-4.13,4.13A2.92,2.92,0,0,1,150.2,220.52Z" transform="translate(901.46 60.27)"/><circle class="cls-9" cx="1236.61" cy="189.57" r="2.53"/><circle class="cls-9" cx="947.58" cy="250.03" r="1.55"/><circle class="cls-9" cx="946.97" cy="215.96" r="4.77"/><circle class="cls-11" cx="1427.27" cy="170.29" r="3.42"/><circle class="cls-11" cx="1420.94" cy="237.95" r="2.74"/><circle class="cls-11" cx="1439.85" cy="257.12" r="3.32"/><circle class="cls-11" cx="1422.79" cy="259.27" r="3.04"/><circle class="cls-11" cx="1350.04" cy="311.58" r="4.77"/><circle class="cls-11" cx="1301.39" cy="289.75" r="4.1"/><circle class="cls-11" cx="1300.13" cy="251.15" r="4.24"/><circle class="cls-11" cx="1254.18" cy="207.22" r="4.83"/><circle class="cls-11" cx="1273.16" cy="178.05" r="1.66"/><circle class="cls-11" cx="1196.54" cy="292.32" r="1.49"/><circle class="cls-11" cx="1062.84" cy="245.84" r="3.32"/><circle class="cls-11" cx="1018.41" cy="320.22" r="3.26"/><circle class="cls-11" cx="1103.94" cy="234.83" r="2.65"/><circle class="cls-11" cx="1049.89" cy="207.84" r="4.2"/><circle class="cls-11" cx="1005.34" cy="170.9" r="4.51"/><circle class="cls-11" cx="1091.13" cy="172.48" r="2.83"/><circle class="cls-10" cx="1004.74" cy="339.17" r="4.59"/><circle class="cls-10" cx="1688.56" cy="201.19" r="3.16"/><circle class="cls-10" cx="1673.5" cy="180.26" r="3.15"/><circle class="cls-10" cx="1756.51" cy="231.13" r="2.97"/><circle class="cls-10" cx="1685.24" cy="240.13" r="3.06"/><circle class="cls-10" cx="1628.82" cy="215.43" r="1.64"/><circle class="cls-10" cx="1486.52" cy="209.61" r="4.97"/><circle class="cls-10" cx="1308.83" cy="285.99" r="4.59"/></g></g></svg>