<svg id="Layer_1" data-name="Layer 1" xmlns="http://www.w3.org/2000/svg" xmlns:xlink="http://www.w3.org/1999/xlink" viewBox="0 0 483.72 711.88"><defs><style>.cls-1{fill:url(#linear-gradient);}.cls-2{fill:url(#linear-gradient-2);}</style><linearGradient id="linear-gradient" x1="900.27" y1="290.43" x2="900.27" y2="427.4" gradientUnits="userSpaceOnUse"><stop offset="0" stop-color="#f9fbfc"/><stop offset="0.03" stop-color="#f5f8fc"/><stop offset="0.2" stop-color="#dfe8fe"/><stop offset="0.36" stop-color="#d2deff"/><stop offset="0.51" stop-color="#cddbff"/></linearGradient><linearGradient id="linear-gradient-2" x1="897.11" y1="682.48" x2="897.11" y2="1050.84" xlink:href="#linear-gradient"/></defs><title>lokicon</title><path class="cls-1" d="M808.88,440.8c-38.19-28.16-63.27-73.1-63.27-124.19a154.66,154.66,0,1,1,309.33,0c0,51.09-25.08,96-63.28,124.19h67.46c26.93-34.38,43.64-77.13,43.64-124.19,0-111.83-90.66-202.49-202.49-202.49S697.78,204.78,697.78,316.61c0,47.06,16.71,89.81,43.64,124.19Z" transform="translate(-655.25 -114.12)"/><path class="cls-2" d="M1108.39,364.43H685.82A30.57,30.57,0,0,0,655.25,395V795.41A30.58,30.58,0,0,0,685.82,826h422.57A30.58,30.58,0,0,0,1139,795.41V395A30.57,30.57,0,0,0,1108.39,364.43ZM930,576.51V692a15.53,15.53,0,0,1-15.53,15.53H886.08A15.53,15.53,0,0,1,870.55,692V576.51c-19.08-10.66-32.49-30.34-32.35-53.79.19-32.91,27.3-60.72,60.19-61.69a62.06,62.06,0,0,1,63.94,62C962.33,546.36,949,565.9,930,576.51Z" transform="translate(-655.25 -114.12)"/></svg>