<svg xmlns="http://www.w3.org/2000/svg" xmlns:xlink="http://www.w3.org/1999/xlink" viewBox="0 0 996.18 857.07"><defs><style>.cls-1{isolation:isolate;}.cls-2{fill:#1ae5ff;}.cls-3{opacity:0.57;}.cls-4{fill:#fff;}.cls-5{fill:url(#linear-gradient);}.cls-6{fill:url(#linear-gradient-2);}.cls-7{fill:url(#linear-gradient-3);}.cls-8{fill:url(#linear-gradient-4);}.cls-9{fill:#f9fbfc;}.cls-10{fill:url(#linear-gradient-5);}.cls-11{fill:#cfe3ff;}.cls-12{fill:url(#linear-gradient-6);}.cls-13{fill:url(#linear-gradient-7);}.cls-14{fill:#ff9d6f;}.cls-15,.cls-28{opacity:0.21;mix-blend-mode:multiply;}.cls-15{fill:url(#linear-gradient-8);}.cls-16{fill:#113c7a;}.cls-17{fill:url(#linear-gradient-9);}.cls-18{fill:#ff7c40;}.cls-19{fill:url(#linear-gradient-10);}.cls-20{fill:url(#linear-gradient-11);}.cls-21{fill:#843837;}.cls-22{fill:#cfdae4;}.cls-23{opacity:0.67;}.cls-24{opacity:0.53;}.cls-25{fill:url(#linear-gradient-12);}.cls-26{opacity:0.46;}.cls-27{fill:url(#linear-gradient-13);}.cls-29{fill:url(#linear-gradient-14);}.cls-30{fill:#5155d4;}.cls-31{fill:#343996;}.cls-32{fill:#ff3d9d;}</style><linearGradient id="linear-gradient" x1="115.39" y1="501.5" x2="155.08" y2="501.5" gradientUnits="userSpaceOnUse"><stop offset="0" stop-color="#cc68ff"/><stop offset="1" stop-color="#fb8e31"/></linearGradient><linearGradient id="linear-gradient-2" x1="742.67" y1="819.94" x2="854.14" y2="-8.55" gradientTransform="matrix(-1, 0, 0, 1, 1495.15, 0)" gradientUnits="userSpaceOnUse"><stop offset="0" stop-color="#1ae5ff"/><stop offset="0.26" stop-color="#64e8f9"/><stop offset="0.7" stop-color="#eaeeee"/></linearGradient><linearGradient id="linear-gradient-3" x1="515.03" y1="599.59" x2="560.49" y2="599.59" gradientTransform="matrix(-1, 0, 0, 1, 1495.15, 0)" gradientUnits="userSpaceOnUse"><stop offset="0" stop-color="#5155d4"/><stop offset="1" stop-color="#45f7ff"/></linearGradient><linearGradient id="linear-gradient-4" x1="398.91" y1="457.47" x2="961.97" y2="457.47" gradientUnits="userSpaceOnUse"><stop offset="0" stop-color="#7f5eff"/><stop offset="0.24" stop-color="#8665ff"/><stop offset="0.6" stop-color="#9978ff"/><stop offset="0.94" stop-color="#b391ff"/></linearGradient><linearGradient id="linear-gradient-5" x1="669.19" y1="227.7" x2="698.03" y2="594.77" gradientTransform="matrix(1, 0, 0, 1, 0, 0)" xlink:href="#linear-gradient-3"/><linearGradient id="linear-gradient-6" x1="654.09" y1="507.14" x2="654.09" y2="635.09" xlink:href="#linear-gradient-4"/><linearGradient id="linear-gradient-7" x1="1331.72" y1="642.32" x2="1408.7" y2="575.22" gradientTransform="matrix(-1, 0, 0, 1, 1831.1, 0)" xlink:href="#linear-gradient-2"/><linearGradient id="linear-gradient-8" x1="326.14" y1="893.1" x2="514.31" y2="893.1" gradientTransform="translate(32.48 -91.93)" xlink:href="#linear-gradient-3"/><linearGradient id="linear-gradient-9" x1="1340.88" y1="818.97" x2="1323.54" y2="456.96" gradientTransform="matrix(-1, 0, 0, 1, 1831.1, 0)" xlink:href="#linear-gradient-2"/><linearGradient id="linear-gradient-10" x1="1286.29" y1="812.46" x2="1268.96" y2="450.45" gradientTransform="matrix(-1, 0, 0, 1, 1831.1, 0)" xlink:href="#linear-gradient-2"/><linearGradient id="linear-gradient-11" x1="1246.33" y1="681.77" x2="1237.32" y2="613.11" gradientTransform="matrix(-1, 0, 0, 1, 1831.1, 0)" xlink:href="#linear-gradient-2"/><linearGradient id="linear-gradient-12" x1="429.96" y1="340.17" x2="503.18" y2="200.6" xlink:href="#linear-gradient"/><linearGradient id="linear-gradient-13" x1="557.84" y1="687.72" x2="702.62" y2="557.52" gradientTransform="translate(-454.15)" gradientUnits="userSpaceOnUse"><stop offset="0" stop-color="#92f3ff"/><stop offset="1" stop-color="#fff"/></linearGradient><linearGradient id="linear-gradient-14" x1="179.11" y1="818.45" x2="372.4" y2="818.45" gradientTransform="matrix(1, 0, 0, 1, 0, 0)" xlink:href="#linear-gradient-3"/></defs><title>regis</title><g class="cls-1"><g id="Layer_1" data-name="Layer 1"><path class="cls-2" d="M855.9,804.39a15.54,15.54,0,0,1,7,12.2c0,4.51-3.19,6.32-7.09,4.07l-64.26-37.1a15.55,15.55,0,0,1-7-12.23c0-4.48,3.19-6.29,7.09-4Z" transform="translate(-61.7 -91.93)"/><g class="cls-3"><path class="cls-2" d="M69.45,399.31a17.17,17.17,0,0,0-7.74,13.46l.52,182.74c0,11.64,8.31,16.41,18.4,10.59l108.86-62.85a17.17,17.17,0,0,0,7.74-13.46L196.7,347c0-11.65-8.31-16.41-18.4-10.59Z" transform="translate(-61.7 -91.93)"/></g><path class="cls-4" d="M86.15,465.53a5.07,5.07,0,0,0-2.31,4l0,9.7c0,1.47,1,2.06,2.32,1.32L175,429.3a5.08,5.08,0,0,0,2.31-4l0-9.7c0-1.46-1-2.05-2.32-1.31Z" transform="translate(-61.7 -91.93)"/><path class="cls-4" d="M86.21,486.65a5.08,5.08,0,0,0-2.31,4l0,9.7c0,1.47,1,2.05,2.32,1.31L175,450.42a5.06,5.06,0,0,0,2.31-4l0-9.7c0-1.47-1-2.06-2.32-1.32Z" transform="translate(-61.7 -91.93)"/><path class="cls-5" d="M120.86,502.38a12,12,0,0,0-5.46,9.46v2.23c0,3.48,2.47,4.88,5.5,3.13l28.71-16.57a12,12,0,0,0,5.47-9.47v-2.23c0-3.47-2.48-4.88-5.51-3.13Z" transform="translate(-61.7 -91.93)"/><path class="cls-6" d="M445.54,95.7l-.87-.49-1.12-.58-1.11-.52-1.1-.47-1.11-.42-.21-.07-.08,0-.8-.26q-.57-.17-1.13-.31t-1.12-.25q-.61-.12-1.2-.2l-.81-.08h-.12l-.29,0q-.65,0-1.29,0t-1.42.07a15.25,15.25,0,0,0-1.58.23h-.09a14,14,0,0,0-1.83.5,13.13,13.13,0,0,0-2.22,1l-18.16,10.55a13.41,13.41,0,0,1,4-1.53H412a16.27,16.27,0,0,1,4.61-.23h.13a22.16,22.16,0,0,1,5.06,1.11l.08,0a31.5,31.5,0,0,1,5.52,2.54L923.87,393.66,942,383.1Z" transform="translate(-61.7 -91.93)"/><path class="cls-7" d="M980.11,434.63q0-.66-.06-1.33t-.11-1.33q-.06-.67-.15-1.34t-.2-1.38v-.07c-.07-.44-.15-.88-.23-1.32s-.19-1-.29-1.43-.22-1-.33-1.44-.25-1-.38-1.45-.22-.75-.33-1.13l0-.09-.07-.23q-.22-.71-.45-1.42t-.49-1.4q-.24-.67-.5-1.34t-.53-1.33c-.14-.34-.29-.68-.44-1l0-.06-.1-.23q-.29-.67-.6-1.33t-.7-1.44q-.41-.82-.85-1.64c-.31-.59-.64-1.16-1-1.74l-.17-.31-.2-.36q-1-1.65-2-3.24-.84-1.26-1.73-2.47-.6-.81-1.22-1.6t-1.06-1.3q-.52-.63-1.06-1.24t-1.06-1.18l-.22-.23-.08-.08-.82-.86q-.57-.58-1.15-1.14t-1.2-1.12q-.6-.54-1.22-1.06l-.62-.5-.14-.11-.46-.38q-.6-.47-1.2-.92t-1.19-.85l-1.16-.77-1.16-.71-.27-.16-18.16,10.55a42.41,42.41,0,0,1,5.45,3.78l.14.11a52.57,52.57,0,0,1,5,4.7l.08.08a64,64,0,0,1,8.58,11.62l.17.31a66.09,66.09,0,0,1,3.22,6.36l0,.08a60.86,60.86,0,0,1,2.48,6.72l0,.09a52.22,52.22,0,0,1,1.56,6.76v0a41.83,41.83,0,0,1,.54,6.66L961,793a31,31,0,0,1-.56,5.9l0,.17a21.83,21.83,0,0,1-1.55,4.82l0,.09a16,16,0,0,1-2.06,3.18c-.25.32-.49.65-.76.94a13.4,13.4,0,0,1-3,2.47l18.16-10.55a13.38,13.38,0,0,0,3-2.47c.27-.29.51-.62.76-.94a14.74,14.74,0,0,0,1-1.22,17.24,17.24,0,0,0,1-1.87l0-.09,0-.08c.21-.45.41-.91.58-1.39s.33-.95.48-1.44.25-.92.36-1.4c0-.2.08-.4.12-.6l0-.17c0-.19.08-.38.11-.57q.11-.64.2-1.31t.14-1.32q.05-.64.08-1.29t0-1.33v-.08l1-346.61Q980.13,435.25,980.11,434.63Z" transform="translate(-61.7 -91.93)"/><path class="cls-8" d="M934.66,399.13C949.8,407.87,962,429,962,446.42L961,793c0,17.39-12.35,24.4-27.48,15.66L426.21,515.81c-15.14-8.74-27.35-29.9-27.3-47.29l1-346.61c0-17.39,12.35-24.4,27.48-15.66Z" transform="translate(-61.7 -91.93)"/><path class="cls-9" d="M903.35,398.36c13.91,8,25.15,27.49,25.1,43.47l-.9,318.64c0,16-11.35,22.43-25.26,14.4L459.82,519.58c-13.91-8-25.14-27.49-25.1-43.47l.9-318.64c0-16,11.35-22.43,25.26-14.4Z" transform="translate(-61.7 -91.93)"/><path class="cls-9" d="M942.68,675.3h0a3.7,3.7,0,0,1-3.7-3.7V560.51a3.7,3.7,0,0,1,3.7-3.7h0a3.7,3.7,0,0,1,3.7,3.7V671.59A3.7,3.7,0,0,1,942.68,675.3Z" transform="translate(-61.7 -91.93)"/><path class="cls-4" d="M416.19,319.78c4.33,2.5,7.83,8.56,7.81,13.53s-3.54,7-7.87,4.48-7.83-8.56-7.81-13.53S411.86,317.28,416.19,319.78Z" transform="translate(-61.7 -91.93)"/><path class="cls-10" d="M720.4,366.81a81.5,81.5,0,0,1,2.92,13.68,65.14,65.14,0,0,1,.49,8c0,.8,0,1.57-.06,2.34,0,.12,0,.24,0,.35q-.06,1.09-.15,2.15l0,.41c-.07.7-.15,1.4-.25,2.07-.14.92-.25,1.58-.38,2.22-.17.83-.32,1.47-.48,2.1l-.08.32q-.24.91-.52,1.79l-.1.32c-.19.59-.4,1.17-.62,1.73s-.51,1.23-.75,1.74c-.34.73-.6,1.23-.87,1.72l-.16.28q-.41.72-.85,1.41l-.14.21c-.31.47-.63.93-1,1.37s-.7.87-1.06,1.28l-.15.17q-.52.58-1.08,1.11l-.21.2q-.56.52-1.14,1l-.18.14q-.59.47-1.2.89c-.51.35-.94.62-1.38.87l-.25.14c-.43.24-.87.47-1.31.68l-.28.13c-.46.21-.92.41-1.4.58s-.64.21-.89.29c-.15-16.9-12-37.33-26.68-45.79S653.32,371,653.27,388c0,0,.43.71,1.22,1.92-.35-.48-.7-1-1-1.46-.66-1-1.11-1.63-1.55-2.3l-.24-.37q-.7-1.08-1.38-2.18l-.29-.47c-.46-.75-.91-1.51-1.36-2.28s-.9-1.59-1.31-2.35l-.24-.44q-.62-1.14-1.2-2.3l-.21-.42q-.56-1.11-1.09-2.23c-.47-1-.83-1.8-1.18-2.6l-.21-.49q-.52-1.19-1-2.39c-.41-1-.71-1.79-1-2.55l-.14-.38q-.44-1.2-.85-2.41l-.16-.48q-.82-2.46-1.49-4.94l-.13-.49q-.32-1.2-.6-2.39l-.1-.43q-.26-1.14-.49-2.27c-.21-1.07-.35-1.86-.48-2.66l-.08-.51q-.19-1.2-.33-2.39c-.12-1-.19-1.76-.26-2.5,0-.13,0-.27,0-.4q-.09-1.16-.14-2.31c0-.16,0-.33,0-.49,0-.79,0-1.57,0-2.35a51.89,51.89,0,0,1,.53-7.4,36.56,36.56,0,0,1,3-10.27q.42-.89.89-1.73c7.15-12.84,22.26-15.82,39.72-5.74,15.67,9,29.39,26.4,37.15,45.08.51,1.23,1,2.46,1.46,3.7Q719.57,364.06,720.4,366.81Zm-39.63,1.27c9,5.21,16.36,1,16.39-9.34s-7.25-23-16.28-28.2-16.36-1-16.39,9.34,7.27,23,16.28,28.2" transform="translate(-61.7 -91.93)"/><path class="cls-11" d="M789.32,505.68a13.46,13.46,0,0,1,6.12,10.57L795.36,542c0,3.9-2.76,5.47-6.16,3.51l-235.51-136a13.47,13.47,0,0,1-6.12-10.6l.07-25.75c0-3.87,2.76-5.44,6.16-3.48Z" transform="translate(-61.7 -91.93)"/><path class="cls-11" d="M789.16,561.72a13.47,13.47,0,0,1,6.12,10.59l-.07,25.75c0,3.9-2.76,5.44-6.16,3.48l-235.51-136A13.43,13.43,0,0,1,547.41,455l.07-25.75c0-3.9,2.76-5.47,6.16-3.51Z" transform="translate(-61.7 -91.93)"/><path class="cls-12" d="M684.11,573c6.33,3.65,11.43,12.51,11.41,19.76v4.65c0,7.27-5.16,10.19-11.48,6.54l-59.94-34.61c-6.33-3.65-11.44-12.5-11.42-19.77v-4.65c0-7.25,5.17-10.19,11.5-6.53Z" transform="translate(-61.7 -91.93)"/><path class="cls-13" d="M466.79,569.66s-20.33,11.71-23.45,65.28c2.6,9.88,18.2,15.08,30.17,7.28S473.07,578.75,466.79,569.66Z" transform="translate(-61.7 -91.93)"/><path class="cls-14" d="M570.13,627.5s46.55-20.73,52.81-24.25,11-16.43,13.3-19.17,12.91-9,12.52-6.26-5.87,7.82-5.87,7.82,3.91,6.65,4.69,11-5.08,12.91-8.21,15.25S628.8,615,628.8,615s-37.94,25.42-44.2,25.82S569.35,637.67,570.13,627.5Z" transform="translate(-61.7 -91.93)"/><ellipse class="cls-15" cx="452.71" cy="801.16" rx="94.08" ry="55.9"/><path class="cls-16" d="M475.4,881.05s-1.21,8.87.4,12.49c1.61,3.22,8.06,5.64,12.49,2.42s12.09-11.28,12.09-11.28,12.89-6.85,14.1-10.48-3.22-6.85-6.85-6-14.1,7.25-18.94,7.25S477,876.62,475.4,881.05Z" transform="translate(-61.7 -91.93)"/><path class="cls-16" d="M462.11,692.35s11.28,186.13,12.68,191.52,16,8.49,18.75-.08c1.72-5.44,6-177.68,6-177.68Z" transform="translate(-61.7 -91.93)"/><path class="cls-16" d="M512.69,892.13a2.89,2.89,0,0,0-1,2.17c0,2.56.09,8.26,1.54,10.49,1.89,2.9,7.81,6,14,2.62,5.22-2.84,21.28-14.84,24.55-17.5a9.6,9.6,0,0,0,3.25-5.14,2.91,2.91,0,0,0-1.65-3.38c-2.28-1-6.17-2.28-9.65-1.11-5.32,1.79-12,7.55-19.27,7.24C519,887.29,514.57,890.51,512.69,892.13Z" transform="translate(-61.7 -91.93)"/><path class="cls-16" d="M537.58,694.36c-.81-7.73-10.07-10.25-18.59-7.61-16.27-.88-41.45-.18-42.34,12.44-1.31,18.69,7.45,32,15.91,41.1,6.25,6.71,10.4,19.53,12.15,25.78,1.48,49.36,4.75,119,6.79,125.64,3.29,10.73,19.48,10.25,20.21-.2C535,856.18,537.58,694.36,537.58,694.36Z" transform="translate(-61.7 -91.93)"/><path class="cls-17" d="M537.63,700.18c-1.91,9.55-29.13,14.33-45,11.78s-33.06-10.36-32.49-28.81c0,0-2.42-73.74-2.42-88.25s9.13-25.25,9.13-25.25,8.91-10.19,36.93-4.46c0,0,22.82,5,33.33,21.84,0,0,7.25,18.54,4.84,57.22S537.63,700.18,537.63,700.18Z" transform="translate(-61.7 -91.93)"/><path class="cls-18" d="M481.85,544.73s2.42,14.1,0,20.55c-.4,3.22,13.7,14.1,26.19,11.28,7.25-1.61,6.85-5.24,6.85-5.24s-6-10.07-5.24-19.75S490.31,542.72,481.85,544.73Z" transform="translate(-61.7 -91.93)"/><circle class="cls-14" cx="434.04" cy="424.39" r="33.24"/><path class="cls-14" d="M529,518.54s.4,33.3-6.85,40-18.39-6.29-36.19-10.46c-17.8-4.57,14.43-39.2,14.43-39.2Z" transform="translate(-61.7 -91.93)"/><path class="cls-19" d="M526.31,579.28s7.28-2.08,15.6,9.88,20.29,27.57,26,30.17,13.52-2.6,16.64-2.6,11.44,14.56,8.32,21.85-23.41,10.92-28.61,10.92-39-20.28-43.69-31.73S508.62,579.8,526.31,579.28Z" transform="translate(-61.7 -91.93)"/><path class="cls-20" d="M579.88,618.29a10.56,10.56,0,0,1,9.36-6.24c7.28-.52,15.6,13.52,15.08,21.32s-12,12-14.56,9.88S592.36,636,579.88,618.29Z" transform="translate(-61.7 -91.93)"/><path class="cls-21" d="M515.64,488.26s12,2.6,15.6,20.81c-1.56,7.8-12.48,1.56-16.64,12s-6.76,13.52-6.76,13.52l-2.6-1s0-8.32-3.64-8.32-4.68,9.88-2.6,14,6.76,6.24,6.76,6.24-5.2,8.84-7.8,9.88-12-1-15.6-2.6-10.4-8.84-15.6-17.16-9.88-22.89-6.76-32.77,10.4-12.48,10.4-12.48A26.43,26.43,0,0,1,481.84,482C489.12,479.42,502.64,478.38,515.64,488.26Z" transform="translate(-61.7 -91.93)"/><path class="cls-22" d="M521.37,572.18l-8.67-4.85s-22.19-2.08-30.17-7.28l-4.16,5.89a25.35,25.35,0,0,0,19.76,12.14c14.22,1.39,20.81-4.16,20.81-4.16Z" transform="translate(-61.7 -91.93)"/><g class="cls-23"><path class="cls-2" d="M912.48,308.5l0,9.74a7.46,7.46,0,0,1-11.21,6.44l-46-26.67a7.46,7.46,0,0,1-3.72-6.48l0-9.74a7.46,7.46,0,0,1,11.21-6.43l46,26.67A7.46,7.46,0,0,1,912.48,308.5Z" transform="translate(-61.7 -91.93)"/><path class="cls-2" d="M1057.88,440.88l0,9.77a7.46,7.46,0,0,1-11.2,6.44L855.16,346.52a7.46,7.46,0,0,1-3.73-6.49l0-9.77a7.46,7.46,0,0,1,11.2-6.44l191.5,110.56A7.46,7.46,0,0,1,1057.88,440.88Z" transform="translate(-61.7 -91.93)"/><g class="cls-24"><path class="cls-2" d="M978.65,492.32l0,9.77a7.46,7.46,0,0,1-11.2,6.44l-112.55-65a7.46,7.46,0,0,1-3.73-6.49l0-9.77a7.46,7.46,0,0,1,11.2-6.44l112.55,65A7.46,7.46,0,0,1,978.65,492.32Z" transform="translate(-61.7 -91.93)"/></g><path class="cls-2" d="M1028,472.25l0,9.77a7.46,7.46,0,0,1-11.2,6.44L855,395a7.46,7.46,0,0,1-3.73-6.49l0-9.77a7.46,7.46,0,0,1,11.2-6.44l161.81,93.42A7.46,7.46,0,0,1,1028,472.25Z" transform="translate(-61.7 -91.93)"/></g><g class="cls-23"><path class="cls-2" d="M144.3,239v5a3.84,3.84,0,0,0,5.77,3.31l23.65-13.72a3.84,3.84,0,0,0,1.91-3.33v-5a3.84,3.84,0,0,0-5.77-3.31l-23.65,13.72A3.84,3.84,0,0,0,144.3,239Z" transform="translate(-61.7 -91.93)"/><path class="cls-2" d="M69.5,307.13v5a3.84,3.84,0,0,0,5.76,3.31l98.53-56.88a3.84,3.84,0,0,0,1.92-3.34v-5a3.84,3.84,0,0,0-5.76-3.31L71.42,303.79A3.84,3.84,0,0,0,69.5,307.13Z" transform="translate(-61.7 -91.93)"/><g class="cls-24"><path class="cls-2" d="M110.26,333.6v5a3.84,3.84,0,0,0,5.76,3.31l57.91-33.43a3.84,3.84,0,0,0,1.92-3.34v-5a3.84,3.84,0,0,0-5.76-3.31l-57.91,33.43A3.84,3.84,0,0,0,110.26,333.6Z" transform="translate(-61.7 -91.93)"/></g><path class="cls-2" d="M84.84,323.27v5a3.84,3.84,0,0,0,5.76,3.31l83.25-48.06a3.84,3.84,0,0,0,1.92-3.34v-5a3.84,3.84,0,0,0-5.76-3.31L86.76,319.93A3.84,3.84,0,0,0,84.84,323.27Z" transform="translate(-61.7 -91.93)"/></g><circle class="cls-25" cx="438.72" cy="323.47" r="39.71"/><polygon class="cls-4" points="435.3 341.73 418.73 329.61 424.76 321.37 433.36 327.65 450.78 305.43 458.82 311.74 435.3 341.73"/><g class="cls-26"><path class="cls-2" d="M448.65,239.54c9.36,5.4,16.94,18.53,16.91,29.29s-7.66,15.17-17,9.76l-154.2-89c-9.36-5.4-16.94-18.53-16.91-29.35s7.66-15.1,17-9.7Z" transform="translate(-61.7 -91.93)"/></g><g class="cls-26"><path class="cls-2" d="M1033.23,710.95c6.51,3.76,11.77,12.88,11.75,20.36s-5.32,10.54-11.83,6.79L926,676.21c-6.51-3.76-11.77-12.88-11.75-20.4s5.32-10.5,11.83-6.74Z" transform="translate(-61.7 -91.93)"/></g><path class="cls-27" d="M294.29,599.49c4,2.29,4,6,0,8.28L162.64,684.3a15.73,15.73,0,0,1-14.29,0L67.13,637.41c-4-2.29-4-6,0-8.28L198.78,552.6a15.76,15.76,0,0,1,14.29,0Z" transform="translate(-61.7 -91.93)"/><g class="cls-28"><path class="cls-29" d="M207.64,778.87c-37.86,21.86-38.07,57.3-.45,79.17S306,879.9,343.87,858s38.06-57.31.45-79.17S245.51,757,207.64,778.87Z" transform="translate(-61.7 -91.93)"/></g><path class="cls-30" d="M253.65,828.72s-17.41,4.54-24.22,4.54,0,6.81,11.35,7.57,21.95,1.51,24.22-1.51-.5-11.61-.5-11.61Z" transform="translate(-61.7 -91.93)"/><path class="cls-30" d="M302.09,812.83s-17.41,4.54-24.22,4.54,0,6.81,11.35,7.57,22,1.51,24.22-1.51-.5-11.61-.5-11.61Z" transform="translate(-61.7 -91.93)"/><path class="cls-31" d="M305.88,624.87s6.31,173.08,7.32,191.24c0,0-5,4-11.1,2,0,0-20.44-113.53-23.46-142.8S270.56,636,270.56,636Z" transform="translate(-61.7 -91.93)"/><path class="cls-31" d="M241.29,635s-6.06,99.91,12.11,196.79c0,0,6.05,3,11.1-4,0,0,11.1-169.54,14.13-193.77S249.36,629.91,241.29,635Z" transform="translate(-61.7 -91.93)"/><path class="cls-31" d="M268.54,711.66s10.09-28.26,19.18-43.4,7.06-37.34,7.06-37.34l-34.31,3Z" transform="translate(-61.7 -91.93)"/><path class="cls-14" d="M233.6,536.19l-30-14.54s-9.09-9.09-11.36-10.91-17.27-5.45-20-5-7.72,4.54-6.36,5.45,14.09,7.72,14.54,10.45-4.54,6.36-2.73,8.18,5.91-1.82,8.63-1.82,10.45,3.64,10.45,3.64l29.08,16.81Z" transform="translate(-61.7 -91.93)"/><path class="cls-32" d="M297.55,507S292,501,282.92,512.6s-16.65,28.76-29.27,27.25-33.3-11.61-33.3-11.61-9.08,6.05-7.57,15.14c0,0,29.27,21.7,48.95,20.69s40.87-21.19,45.41-35.32S297.55,507,297.55,507Z" transform="translate(-61.7 -91.93)"/><path class="cls-32" d="M236.87,634.74c1.81,9,27.6,13.57,42.68,11.16s31.32-9.81,30.78-27.29c0,0,2.29-69.86,2.29-83.6S304,511.09,304,511.09s-8.44-9.65-35-4.22c0,0-21.62,4.71-31.57,20.69,0,0-6.87,17.56-4.58,54.21S236.87,634.74,236.87,634.74Z" transform="translate(-61.7 -91.93)"/><path class="cls-18" d="M289.71,487.48s-2.29,13.36,0,19.47c.38,3.05-13,13.36-24.81,10.69-6.87-1.53-6.49-5-6.49-5s5.73-9.54,5-18.7S281.69,485.58,289.71,487.48Z" transform="translate(-61.7 -91.93)"/><circle class="cls-14" cx="214.83" cy="368.64" r="31.49"/><path class="cls-14" d="M245,462.67s-.38,31.55,6.49,37.91,17.42-6,34.29-9.91c16.87-4.33-13.67-37.14-13.67-37.14Z" transform="translate(-61.7 -91.93)"/><path class="cls-14" d="M206.07,565.89s-44.09-19.64-50-23-10.37-15.56-12.6-18.16-12.23-8.52-11.86-5.93,5.56,7.41,5.56,7.41-3.7,6.3-4.45,10.38,4.82,12.23,7.78,14.45,10,3,10,3,35.94,24.08,41.87,24.46S206.82,575.53,206.07,565.89Z" transform="translate(-61.7 -91.93)"/><path class="cls-32" d="M245.33,526s-5.55-6.06-14.63,5.55S214,560.28,201.43,558.77s-33.3-11.61-33.3-11.61-9.08,6.05-7.57,15.14c0,0,29.27,21.7,48.95,20.69s40.87-21.19,45.41-35.32S245.33,526,245.33,526Z" transform="translate(-61.7 -91.93)"/><path class="cls-21" d="M257.69,434s-11.33,2.46-14.78,19.71c1.48,7.39,11.83,1.48,15.77,11.33s6.41,12.81,6.41,12.81l2.46-1s0-7.88,3.45-7.88,4.43,9.36,2.46,13.3-6.41,5.91-6.41,5.91,4.93,8.38,7.39,9.36,11.33-1,14.78-2.46,9.85-8.38,14.78-16.26,9.36-21.68,6.41-31S300.56,436,300.56,436a25,25,0,0,0-10.84-7.88C282.82,425.61,270,424.63,257.69,434Z" transform="translate(-61.7 -91.93)"/><path class="cls-21" d="M255.17,454.82A24.89,24.89,0,0,1,259,476.77c-3.78,12.87,1.51,12.87,6.81,29.52s-9.84,36.33,4.54,60.55,53,21.19,70.39-3-9.84-41.63-10.6-63.58,16.65-34.82-3-50-28-31.79-52.23-25S244.57,444.22,255.17,454.82Z" transform="translate(-61.7 -91.93)"/></g></g></svg>